<?xml version="1.0" encoding="utf-8" standalone="no"?>
<!DOCTYPE svg PUBLIC "-//W3C//DTD SVG 1.1//EN"
  "http://www.w3.org/Graphics/SVG/1.1/DTD/svg11.dtd">
<svg xmlns:xlink="http://www.w3.org/1999/xlink" width="432pt" height="288pt" viewBox="0 0 432 288" xmlns="http://www.w3.org/2000/svg" version="1.1">
 <metadata>
  <rdf:RDF xmlns:dc="http://purl.org/dc/elements/1.1/" xmlns:cc="http://creativecommons.org/ns#" xmlns:rdf="http://www.w3.org/1999/02/22-rdf-syntax-ns#">
   <cc:Work>
    <dc:type rdf:resource="http://purl.org/dc/dcmitype/StillImage"/>
    <dc:date>2023-06-15T14:32:02.206795</dc:date>
    <dc:format>image/svg+xml</dc:format>
    <dc:creator>
     <cc:Agent>
      <dc:title>Matplotlib v3.7.1, https://matplotlib.org/</dc:title>
     </cc:Agent>
    </dc:creator>
   </cc:Work>
  </rdf:RDF>
 </metadata>
 <defs>
  <style type="text/css">*{stroke-linejoin: round; stroke-linecap: butt}</style>
 </defs>
 <g id="figure_1">
  <g id="patch_1">
   <path d="M 0 288 
L 432 288 
L 432 0 
L 0 0 
z
" style="fill: #ffffff"/>
  </g>
  <g id="axes_1">
   <g id="patch_2">
    <path d="M 54 256.32 
L 388.8 256.32 
L 388.8 34.56 
L 54 34.56 
z
" style="fill: #ffffff"/>
   </g>
   <g id="matplotlib.axis_1">
    <g id="xtick_1">
     <g id="line2d_1">
      <defs>
       <path id="m4fae00f78b" d="M 0 0 
L 0 3.5 
" style="stroke: #000000; stroke-width: 0.8"/>
      </defs>
      <g>
       <use xlink:href="#m4fae00f78b" x="69.218182" y="256.32" style="stroke: #000000; stroke-width: 0.8"/>
      </g>
     </g>
     <g id="text_1">
      <!-- 0.0 -->
      <g transform="translate(61.266619 270.918437) scale(0.1 -0.1)">
       <defs>
        <path id="DejaVuSans-30" d="M 2034 4250 
Q 1547 4250 1301 3770 
Q 1056 3291 1056 2328 
Q 1056 1369 1301 889 
Q 1547 409 2034 409 
Q 2525 409 2770 889 
Q 3016 1369 3016 2328 
Q 3016 3291 2770 3770 
Q 2525 4250 2034 4250 
z
M 2034 4750 
Q 2819 4750 3233 4129 
Q 3647 3509 3647 2328 
Q 3647 1150 3233 529 
Q 2819 -91 2034 -91 
Q 1250 -91 836 529 
Q 422 1150 422 2328 
Q 422 3509 836 4129 
Q 1250 4750 2034 4750 
z
" transform="scale(0.015625)"/>
        <path id="DejaVuSans-2e" d="M 684 794 
L 1344 794 
L 1344 0 
L 684 0 
L 684 794 
z
" transform="scale(0.015625)"/>
       </defs>
       <use xlink:href="#DejaVuSans-30"/>
       <use xlink:href="#DejaVuSans-2e" x="63.623047"/>
       <use xlink:href="#DejaVuSans-30" x="95.410156"/>
      </g>
     </g>
    </g>
    <g id="xtick_2">
     <g id="line2d_2">
      <g>
       <use xlink:href="#m4fae00f78b" x="130.090909" y="256.32" style="stroke: #000000; stroke-width: 0.8"/>
      </g>
     </g>
     <g id="text_2">
      <!-- 0.2 -->
      <g transform="translate(122.139347 270.918437) scale(0.1 -0.1)">
       <defs>
        <path id="DejaVuSans-32" d="M 1228 531 
L 3431 531 
L 3431 0 
L 469 0 
L 469 531 
Q 828 903 1448 1529 
Q 2069 2156 2228 2338 
Q 2531 2678 2651 2914 
Q 2772 3150 2772 3378 
Q 2772 3750 2511 3984 
Q 2250 4219 1831 4219 
Q 1534 4219 1204 4116 
Q 875 4013 500 3803 
L 500 4441 
Q 881 4594 1212 4672 
Q 1544 4750 1819 4750 
Q 2544 4750 2975 4387 
Q 3406 4025 3406 3419 
Q 3406 3131 3298 2873 
Q 3191 2616 2906 2266 
Q 2828 2175 2409 1742 
Q 1991 1309 1228 531 
z
" transform="scale(0.015625)"/>
       </defs>
       <use xlink:href="#DejaVuSans-30"/>
       <use xlink:href="#DejaVuSans-2e" x="63.623047"/>
       <use xlink:href="#DejaVuSans-32" x="95.410156"/>
      </g>
     </g>
    </g>
    <g id="xtick_3">
     <g id="line2d_3">
      <g>
       <use xlink:href="#m4fae00f78b" x="190.963636" y="256.32" style="stroke: #000000; stroke-width: 0.8"/>
      </g>
     </g>
     <g id="text_3">
      <!-- 0.4 -->
      <g transform="translate(183.012074 270.918437) scale(0.1 -0.1)">
       <defs>
        <path id="DejaVuSans-34" d="M 2419 4116 
L 825 1625 
L 2419 1625 
L 2419 4116 
z
M 2253 4666 
L 3047 4666 
L 3047 1625 
L 3713 1625 
L 3713 1100 
L 3047 1100 
L 3047 0 
L 2419 0 
L 2419 1100 
L 313 1100 
L 313 1709 
L 2253 4666 
z
" transform="scale(0.015625)"/>
       </defs>
       <use xlink:href="#DejaVuSans-30"/>
       <use xlink:href="#DejaVuSans-2e" x="63.623047"/>
       <use xlink:href="#DejaVuSans-34" x="95.410156"/>
      </g>
     </g>
    </g>
    <g id="xtick_4">
     <g id="line2d_4">
      <g>
       <use xlink:href="#m4fae00f78b" x="251.836364" y="256.32" style="stroke: #000000; stroke-width: 0.8"/>
      </g>
     </g>
     <g id="text_4">
      <!-- 0.6 -->
      <g transform="translate(243.884801 270.918437) scale(0.1 -0.1)">
       <defs>
        <path id="DejaVuSans-36" d="M 2113 2584 
Q 1688 2584 1439 2293 
Q 1191 2003 1191 1497 
Q 1191 994 1439 701 
Q 1688 409 2113 409 
Q 2538 409 2786 701 
Q 3034 994 3034 1497 
Q 3034 2003 2786 2293 
Q 2538 2584 2113 2584 
z
M 3366 4563 
L 3366 3988 
Q 3128 4100 2886 4159 
Q 2644 4219 2406 4219 
Q 1781 4219 1451 3797 
Q 1122 3375 1075 2522 
Q 1259 2794 1537 2939 
Q 1816 3084 2150 3084 
Q 2853 3084 3261 2657 
Q 3669 2231 3669 1497 
Q 3669 778 3244 343 
Q 2819 -91 2113 -91 
Q 1303 -91 875 529 
Q 447 1150 447 2328 
Q 447 3434 972 4092 
Q 1497 4750 2381 4750 
Q 2619 4750 2861 4703 
Q 3103 4656 3366 4563 
z
" transform="scale(0.015625)"/>
       </defs>
       <use xlink:href="#DejaVuSans-30"/>
       <use xlink:href="#DejaVuSans-2e" x="63.623047"/>
       <use xlink:href="#DejaVuSans-36" x="95.410156"/>
      </g>
     </g>
    </g>
    <g id="xtick_5">
     <g id="line2d_5">
      <g>
       <use xlink:href="#m4fae00f78b" x="312.709091" y="256.32" style="stroke: #000000; stroke-width: 0.8"/>
      </g>
     </g>
     <g id="text_5">
      <!-- 0.8 -->
      <g transform="translate(304.757528 270.918437) scale(0.1 -0.1)">
       <defs>
        <path id="DejaVuSans-38" d="M 2034 2216 
Q 1584 2216 1326 1975 
Q 1069 1734 1069 1313 
Q 1069 891 1326 650 
Q 1584 409 2034 409 
Q 2484 409 2743 651 
Q 3003 894 3003 1313 
Q 3003 1734 2745 1975 
Q 2488 2216 2034 2216 
z
M 1403 2484 
Q 997 2584 770 2862 
Q 544 3141 544 3541 
Q 544 4100 942 4425 
Q 1341 4750 2034 4750 
Q 2731 4750 3128 4425 
Q 3525 4100 3525 3541 
Q 3525 3141 3298 2862 
Q 3072 2584 2669 2484 
Q 3125 2378 3379 2068 
Q 3634 1759 3634 1313 
Q 3634 634 3220 271 
Q 2806 -91 2034 -91 
Q 1263 -91 848 271 
Q 434 634 434 1313 
Q 434 1759 690 2068 
Q 947 2378 1403 2484 
z
M 1172 3481 
Q 1172 3119 1398 2916 
Q 1625 2713 2034 2713 
Q 2441 2713 2670 2916 
Q 2900 3119 2900 3481 
Q 2900 3844 2670 4047 
Q 2441 4250 2034 4250 
Q 1625 4250 1398 4047 
Q 1172 3844 1172 3481 
z
" transform="scale(0.015625)"/>
       </defs>
       <use xlink:href="#DejaVuSans-30"/>
       <use xlink:href="#DejaVuSans-2e" x="63.623047"/>
       <use xlink:href="#DejaVuSans-38" x="95.410156"/>
      </g>
     </g>
    </g>
    <g id="xtick_6">
     <g id="line2d_6">
      <g>
       <use xlink:href="#m4fae00f78b" x="373.581818" y="256.32" style="stroke: #000000; stroke-width: 0.8"/>
      </g>
     </g>
     <g id="text_6">
      <!-- 1.0 -->
      <g transform="translate(365.630256 270.918437) scale(0.1 -0.1)">
       <defs>
        <path id="DejaVuSans-31" d="M 794 531 
L 1825 531 
L 1825 4091 
L 703 3866 
L 703 4441 
L 1819 4666 
L 2450 4666 
L 2450 531 
L 3481 531 
L 3481 0 
L 794 0 
L 794 531 
z
" transform="scale(0.015625)"/>
       </defs>
       <use xlink:href="#DejaVuSans-31"/>
       <use xlink:href="#DejaVuSans-2e" x="63.623047"/>
       <use xlink:href="#DejaVuSans-30" x="95.410156"/>
      </g>
     </g>
    </g>
    <g id="text_7">
     <!-- recall -->
     <g transform="translate(207.789062 284.596563) scale(0.1 -0.1)">
      <defs>
       <path id="DejaVuSans-72" d="M 2631 2963 
Q 2534 3019 2420 3045 
Q 2306 3072 2169 3072 
Q 1681 3072 1420 2755 
Q 1159 2438 1159 1844 
L 1159 0 
L 581 0 
L 581 3500 
L 1159 3500 
L 1159 2956 
Q 1341 3275 1631 3429 
Q 1922 3584 2338 3584 
Q 2397 3584 2469 3576 
Q 2541 3569 2628 3553 
L 2631 2963 
z
" transform="scale(0.015625)"/>
       <path id="DejaVuSans-65" d="M 3597 1894 
L 3597 1613 
L 953 1613 
Q 991 1019 1311 708 
Q 1631 397 2203 397 
Q 2534 397 2845 478 
Q 3156 559 3463 722 
L 3463 178 
Q 3153 47 2828 -22 
Q 2503 -91 2169 -91 
Q 1331 -91 842 396 
Q 353 884 353 1716 
Q 353 2575 817 3079 
Q 1281 3584 2069 3584 
Q 2775 3584 3186 3129 
Q 3597 2675 3597 1894 
z
M 3022 2063 
Q 3016 2534 2758 2815 
Q 2500 3097 2075 3097 
Q 1594 3097 1305 2825 
Q 1016 2553 972 2059 
L 3022 2063 
z
" transform="scale(0.015625)"/>
       <path id="DejaVuSans-63" d="M 3122 3366 
L 3122 2828 
Q 2878 2963 2633 3030 
Q 2388 3097 2138 3097 
Q 1578 3097 1268 2742 
Q 959 2388 959 1747 
Q 959 1106 1268 751 
Q 1578 397 2138 397 
Q 2388 397 2633 464 
Q 2878 531 3122 666 
L 3122 134 
Q 2881 22 2623 -34 
Q 2366 -91 2075 -91 
Q 1284 -91 818 406 
Q 353 903 353 1747 
Q 353 2603 823 3093 
Q 1294 3584 2113 3584 
Q 2378 3584 2631 3529 
Q 2884 3475 3122 3366 
z
" transform="scale(0.015625)"/>
       <path id="DejaVuSans-61" d="M 2194 1759 
Q 1497 1759 1228 1600 
Q 959 1441 959 1056 
Q 959 750 1161 570 
Q 1363 391 1709 391 
Q 2188 391 2477 730 
Q 2766 1069 2766 1631 
L 2766 1759 
L 2194 1759 
z
M 3341 1997 
L 3341 0 
L 2766 0 
L 2766 531 
Q 2569 213 2275 61 
Q 1981 -91 1556 -91 
Q 1019 -91 701 211 
Q 384 513 384 1019 
Q 384 1609 779 1909 
Q 1175 2209 1959 2209 
L 2766 2209 
L 2766 2266 
Q 2766 2663 2505 2880 
Q 2244 3097 1772 3097 
Q 1472 3097 1187 3025 
Q 903 2953 641 2809 
L 641 3341 
Q 956 3463 1253 3523 
Q 1550 3584 1831 3584 
Q 2591 3584 2966 3190 
Q 3341 2797 3341 1997 
z
" transform="scale(0.015625)"/>
       <path id="DejaVuSans-6c" d="M 603 4863 
L 1178 4863 
L 1178 0 
L 603 0 
L 603 4863 
z
" transform="scale(0.015625)"/>
      </defs>
      <use xlink:href="#DejaVuSans-72"/>
      <use xlink:href="#DejaVuSans-65" x="38.863281"/>
      <use xlink:href="#DejaVuSans-63" x="100.386719"/>
      <use xlink:href="#DejaVuSans-61" x="155.367188"/>
      <use xlink:href="#DejaVuSans-6c" x="216.646484"/>
      <use xlink:href="#DejaVuSans-6c" x="244.429688"/>
     </g>
    </g>
   </g>
   <g id="matplotlib.axis_2">
    <g id="ytick_1">
     <g id="line2d_7">
      <defs>
       <path id="m72d03d7527" d="M 0 0 
L -3.5 0 
" style="stroke: #000000; stroke-width: 0.8"/>
      </defs>
      <g>
       <use xlink:href="#m72d03d7527" x="54" y="256.32" style="stroke: #000000; stroke-width: 0.8"/>
      </g>
     </g>
     <g id="text_8">
      <!-- 0.3 -->
      <g transform="translate(31.096875 260.119219) scale(0.1 -0.1)">
       <defs>
        <path id="DejaVuSans-33" d="M 2597 2516 
Q 3050 2419 3304 2112 
Q 3559 1806 3559 1356 
Q 3559 666 3084 287 
Q 2609 -91 1734 -91 
Q 1441 -91 1130 -33 
Q 819 25 488 141 
L 488 750 
Q 750 597 1062 519 
Q 1375 441 1716 441 
Q 2309 441 2620 675 
Q 2931 909 2931 1356 
Q 2931 1769 2642 2001 
Q 2353 2234 1838 2234 
L 1294 2234 
L 1294 2753 
L 1863 2753 
Q 2328 2753 2575 2939 
Q 2822 3125 2822 3475 
Q 2822 3834 2567 4026 
Q 2313 4219 1838 4219 
Q 1578 4219 1281 4162 
Q 984 4106 628 3988 
L 628 4550 
Q 988 4650 1302 4700 
Q 1616 4750 1894 4750 
Q 2613 4750 3031 4423 
Q 3450 4097 3450 3541 
Q 3450 3153 3228 2886 
Q 3006 2619 2597 2516 
z
" transform="scale(0.015625)"/>
       </defs>
       <use xlink:href="#DejaVuSans-30"/>
       <use xlink:href="#DejaVuSans-2e" x="63.623047"/>
       <use xlink:href="#DejaVuSans-33" x="95.410156"/>
      </g>
     </g>
    </g>
    <g id="ytick_2">
     <g id="line2d_8">
      <g>
       <use xlink:href="#m72d03d7527" x="54" y="226.08" style="stroke: #000000; stroke-width: 0.8"/>
      </g>
     </g>
     <g id="text_9">
      <!-- 0.4 -->
      <g transform="translate(31.096875 229.879219) scale(0.1 -0.1)">
       <use xlink:href="#DejaVuSans-30"/>
       <use xlink:href="#DejaVuSans-2e" x="63.623047"/>
       <use xlink:href="#DejaVuSans-34" x="95.410156"/>
      </g>
     </g>
    </g>
    <g id="ytick_3">
     <g id="line2d_9">
      <g>
       <use xlink:href="#m72d03d7527" x="54" y="195.84" style="stroke: #000000; stroke-width: 0.8"/>
      </g>
     </g>
     <g id="text_10">
      <!-- 0.5 -->
      <g transform="translate(31.096875 199.639219) scale(0.1 -0.1)">
       <defs>
        <path id="DejaVuSans-35" d="M 691 4666 
L 3169 4666 
L 3169 4134 
L 1269 4134 
L 1269 2991 
Q 1406 3038 1543 3061 
Q 1681 3084 1819 3084 
Q 2600 3084 3056 2656 
Q 3513 2228 3513 1497 
Q 3513 744 3044 326 
Q 2575 -91 1722 -91 
Q 1428 -91 1123 -41 
Q 819 9 494 109 
L 494 744 
Q 775 591 1075 516 
Q 1375 441 1709 441 
Q 2250 441 2565 725 
Q 2881 1009 2881 1497 
Q 2881 1984 2565 2268 
Q 2250 2553 1709 2553 
Q 1456 2553 1204 2497 
Q 953 2441 691 2322 
L 691 4666 
z
" transform="scale(0.015625)"/>
       </defs>
       <use xlink:href="#DejaVuSans-30"/>
       <use xlink:href="#DejaVuSans-2e" x="63.623047"/>
       <use xlink:href="#DejaVuSans-35" x="95.410156"/>
      </g>
     </g>
    </g>
    <g id="ytick_4">
     <g id="line2d_10">
      <g>
       <use xlink:href="#m72d03d7527" x="54" y="165.6" style="stroke: #000000; stroke-width: 0.8"/>
      </g>
     </g>
     <g id="text_11">
      <!-- 0.6 -->
      <g transform="translate(31.096875 169.399219) scale(0.1 -0.1)">
       <use xlink:href="#DejaVuSans-30"/>
       <use xlink:href="#DejaVuSans-2e" x="63.623047"/>
       <use xlink:href="#DejaVuSans-36" x="95.410156"/>
      </g>
     </g>
    </g>
    <g id="ytick_5">
     <g id="line2d_11">
      <g>
       <use xlink:href="#m72d03d7527" x="54" y="135.36" style="stroke: #000000; stroke-width: 0.8"/>
      </g>
     </g>
     <g id="text_12">
      <!-- 0.7 -->
      <g transform="translate(31.096875 139.159219) scale(0.1 -0.1)">
       <defs>
        <path id="DejaVuSans-37" d="M 525 4666 
L 3525 4666 
L 3525 4397 
L 1831 0 
L 1172 0 
L 2766 4134 
L 525 4134 
L 525 4666 
z
" transform="scale(0.015625)"/>
       </defs>
       <use xlink:href="#DejaVuSans-30"/>
       <use xlink:href="#DejaVuSans-2e" x="63.623047"/>
       <use xlink:href="#DejaVuSans-37" x="95.410156"/>
      </g>
     </g>
    </g>
    <g id="ytick_6">
     <g id="line2d_12">
      <g>
       <use xlink:href="#m72d03d7527" x="54" y="105.12" style="stroke: #000000; stroke-width: 0.8"/>
      </g>
     </g>
     <g id="text_13">
      <!-- 0.8 -->
      <g transform="translate(31.096875 108.919219) scale(0.1 -0.1)">
       <use xlink:href="#DejaVuSans-30"/>
       <use xlink:href="#DejaVuSans-2e" x="63.623047"/>
       <use xlink:href="#DejaVuSans-38" x="95.410156"/>
      </g>
     </g>
    </g>
    <g id="ytick_7">
     <g id="line2d_13">
      <g>
       <use xlink:href="#m72d03d7527" x="54" y="74.88" style="stroke: #000000; stroke-width: 0.8"/>
      </g>
     </g>
     <g id="text_14">
      <!-- 0.9 -->
      <g transform="translate(31.096875 78.679219) scale(0.1 -0.1)">
       <defs>
        <path id="DejaVuSans-39" d="M 703 97 
L 703 672 
Q 941 559 1184 500 
Q 1428 441 1663 441 
Q 2288 441 2617 861 
Q 2947 1281 2994 2138 
Q 2813 1869 2534 1725 
Q 2256 1581 1919 1581 
Q 1219 1581 811 2004 
Q 403 2428 403 3163 
Q 403 3881 828 4315 
Q 1253 4750 1959 4750 
Q 2769 4750 3195 4129 
Q 3622 3509 3622 2328 
Q 3622 1225 3098 567 
Q 2575 -91 1691 -91 
Q 1453 -91 1209 -44 
Q 966 3 703 97 
z
M 1959 2075 
Q 2384 2075 2632 2365 
Q 2881 2656 2881 3163 
Q 2881 3666 2632 3958 
Q 2384 4250 1959 4250 
Q 1534 4250 1286 3958 
Q 1038 3666 1038 3163 
Q 1038 2656 1286 2365 
Q 1534 2075 1959 2075 
z
" transform="scale(0.015625)"/>
       </defs>
       <use xlink:href="#DejaVuSans-30"/>
       <use xlink:href="#DejaVuSans-2e" x="63.623047"/>
       <use xlink:href="#DejaVuSans-39" x="95.410156"/>
      </g>
     </g>
    </g>
    <g id="ytick_8">
     <g id="line2d_14">
      <g>
       <use xlink:href="#m72d03d7527" x="54" y="44.64" style="stroke: #000000; stroke-width: 0.8"/>
      </g>
     </g>
     <g id="text_15">
      <!-- 1.0 -->
      <g transform="translate(31.096875 48.439219) scale(0.1 -0.1)">
       <use xlink:href="#DejaVuSans-31"/>
       <use xlink:href="#DejaVuSans-2e" x="63.623047"/>
       <use xlink:href="#DejaVuSans-30" x="95.410156"/>
      </g>
     </g>
    </g>
    <g id="text_16">
     <!-- precision -->
     <g transform="translate(25.017187 167.993906) rotate(-90) scale(0.1 -0.1)">
      <defs>
       <path id="DejaVuSans-70" d="M 1159 525 
L 1159 -1331 
L 581 -1331 
L 581 3500 
L 1159 3500 
L 1159 2969 
Q 1341 3281 1617 3432 
Q 1894 3584 2278 3584 
Q 2916 3584 3314 3078 
Q 3713 2572 3713 1747 
Q 3713 922 3314 415 
Q 2916 -91 2278 -91 
Q 1894 -91 1617 61 
Q 1341 213 1159 525 
z
M 3116 1747 
Q 3116 2381 2855 2742 
Q 2594 3103 2138 3103 
Q 1681 3103 1420 2742 
Q 1159 2381 1159 1747 
Q 1159 1113 1420 752 
Q 1681 391 2138 391 
Q 2594 391 2855 752 
Q 3116 1113 3116 1747 
z
" transform="scale(0.015625)"/>
       <path id="DejaVuSans-69" d="M 603 3500 
L 1178 3500 
L 1178 0 
L 603 0 
L 603 3500 
z
M 603 4863 
L 1178 4863 
L 1178 4134 
L 603 4134 
L 603 4863 
z
" transform="scale(0.015625)"/>
       <path id="DejaVuSans-73" d="M 2834 3397 
L 2834 2853 
Q 2591 2978 2328 3040 
Q 2066 3103 1784 3103 
Q 1356 3103 1142 2972 
Q 928 2841 928 2578 
Q 928 2378 1081 2264 
Q 1234 2150 1697 2047 
L 1894 2003 
Q 2506 1872 2764 1633 
Q 3022 1394 3022 966 
Q 3022 478 2636 193 
Q 2250 -91 1575 -91 
Q 1294 -91 989 -36 
Q 684 19 347 128 
L 347 722 
Q 666 556 975 473 
Q 1284 391 1588 391 
Q 1994 391 2212 530 
Q 2431 669 2431 922 
Q 2431 1156 2273 1281 
Q 2116 1406 1581 1522 
L 1381 1569 
Q 847 1681 609 1914 
Q 372 2147 372 2553 
Q 372 3047 722 3315 
Q 1072 3584 1716 3584 
Q 2034 3584 2315 3537 
Q 2597 3491 2834 3397 
z
" transform="scale(0.015625)"/>
       <path id="DejaVuSans-6f" d="M 1959 3097 
Q 1497 3097 1228 2736 
Q 959 2375 959 1747 
Q 959 1119 1226 758 
Q 1494 397 1959 397 
Q 2419 397 2687 759 
Q 2956 1122 2956 1747 
Q 2956 2369 2687 2733 
Q 2419 3097 1959 3097 
z
M 1959 3584 
Q 2709 3584 3137 3096 
Q 3566 2609 3566 1747 
Q 3566 888 3137 398 
Q 2709 -91 1959 -91 
Q 1206 -91 779 398 
Q 353 888 353 1747 
Q 353 2609 779 3096 
Q 1206 3584 1959 3584 
z
" transform="scale(0.015625)"/>
       <path id="DejaVuSans-6e" d="M 3513 2113 
L 3513 0 
L 2938 0 
L 2938 2094 
Q 2938 2591 2744 2837 
Q 2550 3084 2163 3084 
Q 1697 3084 1428 2787 
Q 1159 2491 1159 1978 
L 1159 0 
L 581 0 
L 581 3500 
L 1159 3500 
L 1159 2956 
Q 1366 3272 1645 3428 
Q 1925 3584 2291 3584 
Q 2894 3584 3203 3211 
Q 3513 2838 3513 2113 
z
" transform="scale(0.015625)"/>
      </defs>
      <use xlink:href="#DejaVuSans-70"/>
      <use xlink:href="#DejaVuSans-72" x="63.476562"/>
      <use xlink:href="#DejaVuSans-65" x="102.339844"/>
      <use xlink:href="#DejaVuSans-63" x="163.863281"/>
      <use xlink:href="#DejaVuSans-69" x="218.84375"/>
      <use xlink:href="#DejaVuSans-73" x="246.626953"/>
      <use xlink:href="#DejaVuSans-69" x="298.726562"/>
      <use xlink:href="#DejaVuSans-6f" x="326.509766"/>
      <use xlink:href="#DejaVuSans-6e" x="387.691406"/>
     </g>
    </g>
   </g>
   <g id="line2d_15">
    <path d="M 373.581818 246.24 
L 373.581818 235.04 
L 371.438412 234.956418 
L 371.438412 233.258182 
L 370.723944 233.225316 
L 370.723944 224.541907 
L 370.009475 224.482623 
L 370.009475 221.743911 
L 369.452032 221.675294 
L 369.452032 213.84 
L 368.737564 213.743284 
L 368.737564 210.898537 
L 368.023095 210.790459 
L 368.023095 209.103158 
L 367.308627 208.987826 
L 367.308627 208.125 
L 365.879689 207.885283 
L 365.879689 200.512848 
L 365.322247 200.36093 
L 365.322247 199.872 
L 364.607778 199.716923 
L 364.607778 198.223784 
L 363.802583 198.061017 
L 363.802583 197.554286 
L 362.997389 197.388123 
L 362.997389 195.316817 
L 362.192194 195.14 
L 362.192194 194.077762 
L 361.386999 193.894737 
L 361.386999 191.714733 
L 360.829556 191.52 
L 360.829556 190.962581 
L 357.608777 190.158545 
L 357.608777 189.585985 
L 356.803582 189.378462 
L 356.803582 188.214908 
L 356.089114 188 
L 356.089114 187.408773 
L 355.531671 187.189254 
L 355.531671 186.590562 
L 353.054149 185.683346 
L 351.782237 185.836947 
L 350.667352 185.372308 
L 350.667352 184.748108 
L 347.632387 183.537638 
L 346.26975 183.04 
L 345.712307 182.788207 
L 342.987033 183.088193 
L 342.42959 182.833548 
L 341.066953 182.984939 
L 340.50951 182.727805 
L 339.146873 182.88 
L 339.146873 181.528889 
L 335.058961 181.98 
L 332.891129 181.166582 
L 332.333686 180.890847 
L 329.608411 181.193846 
L 327.378641 180.062609 
L 325.301535 180.653974 
L 323.938898 180.076123 
L 323.938898 179.337345 
L 323.224429 179.04 
L 323.224429 178.29 
L 322.666987 177.985291 
L 322.666987 176.455385 
L 321.304349 176.596364 
L 320.746907 176.278356 
L 319.384269 176.419817 
L 318.269384 175.773333 
L 318.269384 174.976744 
L 315.482171 173.28 
L 312.847623 173.547692 
L 312.29018 173.196522 
L 312.29018 172.352621 
L 311.484985 171.992195 
L 308.759711 172.253793 
L 308.759711 171.388515 
L 307.149321 170.64 
L 306.591879 170.260101 
L 306.591879 169.367273 
L 305.229241 169.488731 
L 304.114356 168.701538 
L 304.114356 167.782268 
L 303.556914 167.375751 
L 303.556914 165.49445 
L 302.751719 165.069474 
L 302.751719 160.151351 
L 301.389081 160.231304 
L 301.389081 159.210492 
L 297.8874 156.260339 
L 296.615489 155.232 
L 296.615489 154.129655 
L 295.252851 154.179884 
L 294.137966 153.103158 
L 294.137966 150.808047 
L 292.775329 150.84 
L 291.660444 149.690602 
L 290.855249 149.105455 
L 290.855249 147.898537 
L 290.050054 147.295215 
L 288.687417 147.306667 
L 288.129974 146.692174 
L 288.129974 145.44 
L 287.572532 144.806038 
L 287.572532 143.526076 
L 286.209894 143.513885 
L 285.095009 142.188387 
L 283.732372 142.167273 
L 282.617487 140.797895 
L 282.617487 139.432053 
L 282.060044 138.72 
L 280.697407 138.674899 
L 279.982938 137.948108 
L 278.620301 137.897143 
L 278.062858 137.155068 
L 277.34839 136.402759 
L 277.34839 134.94 
L 273.260478 134.716596 
L 272.703035 133.92 
L 272.703035 130.831304 
L 272.145592 129.988905 
L 270.782955 129.875294 
L 270.225513 129.013333 
L 269.511044 128.138507 
L 269.511044 126.492632 
L 268.953601 125.585455 
L 267.590964 125.433893 
L 267.033521 124.504615 
L 266.319053 123.56093 
L 265.204168 121.628976 
L 263.127062 122.24 
L 261.764424 122.0544 
L 260.154035 120.035122 
L 256.338301 119.4 
L 255.780859 118.334118 
L 254.975664 117.250169 
L 248.368356 116.002832 
L 247.653887 114.84 
L 245.576781 115.472432 
L 244.30487 115.2 
L 243.590401 113.997798 
L 242.070738 113.706667 
L 237.916526 115.009811 
L 236.644615 114.72 
L 235.930146 113.455385 
L 234.658235 113.144854 
L 232.581129 113.816471 
L 231.309218 113.503366 
L 229.88028 110.821818 
L 227.088706 110.108041 
L 226.531263 108.69 
L 225.259352 108.303158 
L 223.182246 108.980426 
L 221.910335 108.588387 
L 219.05246 102.401798 
L 218.337992 100.767273 
L 213.002595 98.64 
L 211.573657 95.04 
L 210.301746 94.417778 
L 208.22464 95.04 
L 205.433066 93.747692 
L 203.35596 94.385455 
L 202.641491 92.387368 
L 201.121827 91.68 
L 200.407359 89.591351 
L 196.591625 87.231549 
L 194.514519 87.84 
L 192.371113 80.747463 
L 190.294007 81.294545 
L 187.750185 79.29 
L 183.595973 80.407742 
L 182.324062 79.341639 
L 181.609593 76.56 
L 179.065771 74.184828 
L 178.351302 71.166316 
L 176.274196 71.64 
L 174.845259 65.173333 
L 170.691047 65.963077 
L 169.419136 64.404706 
L 167.34203 64.8 
L 165.979392 63.154286 
L 157.670968 64.8 
L 155.593862 65.258182 
L 154.074199 63.393488 
L 149.919987 64.308293 
L 148.400324 62.28 
L 144.246112 63.208421 
L 142.726448 60.985946 
L 138.572236 61.92 
L 135.532909 56.858182 
L 134.013246 54.09 
L 129.859034 54.72 
L 126.819707 48.24 
L 124.742601 48.373333 
L 123.222938 44.64 
L 69.218182 44.64 
L 69.218182 44.64 
" clip-path="url(#p10994770ae)" style="fill: none; stroke: #1f77b4; stroke-width: 1.5; stroke-linecap: square"/>
   </g>
   <g id="line2d_16">
    <path d="M 373.581818 246.24 
L 373.581818 244.647223 
L 372.776623 244.64362 
L 372.776623 234.568166 
L 372.062155 234.539341 
L 372.062155 231.369538 
L 371.347686 231.33162 
L 371.347686 230.130721 
L 370.633217 230.089091 
L 370.633217 227.603463 
L 369.828023 227.554111 
L 369.828023 213.702018 
L 369.113554 213.605373 
L 369.113554 211.174932 
L 368.308359 211.068542 
L 368.308359 210.235407 
L 366.788696 210.014222 
L 366.788696 209.164216 
L 366.074227 209.049265 
L 366.074227 208.618598 
L 365.269032 208.501223 
L 365.269032 207.187698 
L 364.554564 207.064304 
L 364.554564 202.481157 
L 363.749369 202.33786 
L 363.749369 198.932129 
L 362.944174 198.773006 
L 362.944174 197.765811 
L 362.138979 197.601092 
L 362.138979 197.090044 
L 361.581537 196.920695 
L 361.581537 196.403782 
L 360.061873 196.580876 
L 360.061873 195.533902 
L 358.451484 195.179625 
L 358.451484 191.36156 
L 357.088846 190.964282 
L 357.088846 190.397597 
L 355.973961 189.987558 
L 355.973961 189.411041 
L 355.416519 189.200864 
L 355.416519 188.617171 
L 354.859076 188.402478 
L 354.859076 186.616109 
L 352.071863 185.471377 
L 350.5522 185.626313 
L 348.63212 184.918708 
L 347.269483 185.072393 
L 347.269483 183.799092 
L 345.997571 183.950174 
L 344.72566 183.454343 
L 343.363023 183.605852 
L 343.363023 182.950554 
L 341.442943 182.178699 
L 340.080306 182.328084 
L 339.522863 182.065574 
L 339.522863 181.387784 
L 338.160226 180.850144 
L 335.373013 179.461712 
L 335.373013 178.749802 
L 334.81557 178.460753 
L 334.81557 177.738448 
L 334.010376 177.44441 
L 334.010376 176.711473 
L 333.295907 176.410435 
L 333.295907 175.666603 
L 332.738464 175.356433 
L 331.375827 175.487577 
L 331.375827 174.729805 
L 330.818384 174.411327 
L 330.01319 174.092 
L 330.01319 173.317803 
L 327.936084 173.896769 
L 327.378641 173.568751 
L 325.210809 172.570828 
L 323.538481 171.540775 
L 322.175844 170.840132 
L 321.618401 170.483742 
L 321.618401 167.954067 
L 320.255764 168.061568 
L 318.025994 166.525567 
L 315.391445 166.732728 
L 314.58625 166.338833 
L 314.58625 164.526151 
L 314.028808 164.112636 
L 312.756897 164.20659 
L 311.084569 162.935448 
L 310.279374 162.505627 
L 309.721932 162.068627 
L 309.721932 159.138246 
L 308.45002 159.210213 
L 307.335135 158.272569 
L 307.335135 157.254194 
L 306.52994 156.772597 
L 306.52994 155.734939 
L 305.972498 155.236721 
L 304.609861 155.289894 
L 304.609861 154.22674 
L 303.804666 153.71486 
L 303.247223 153.19409 
L 301.884586 153.236915 
L 301.884586 152.137997 
L 301.327143 151.599273 
L 299.964506 151.633655 
L 297.734736 149.403344 
L 296.929541 148.832746 
L 296.929541 147.655385 
L 295.566904 147.667545 
L 295.566904 146.469017 
L 294.204266 146.474129 
L 294.204266 145.253747 
L 291.569718 145.249134 
L 291.012275 144.620676 
L 289.740364 144.614348 
L 289.740364 140.754746 
L 286.858063 140.69598 
L 286.858063 139.359062 
L 286.300621 138.659251 
L 284.937983 138.613375 
L 284.380541 137.899324 
L 284.380541 136.508185 
L 283.823098 135.770416 
L 283.823098 134.346149 
L 283.265655 133.583629 
L 282.460461 132.815342 
L 281.903018 132.031743 
L 281.903018 129.031608 
L 277.905832 128.675745 
L 277.34839 127.828489 
L 276.543195 126.974188 
L 275.985752 126.102139 
L 274.623115 125.95842 
L 274.623115 124.324706 
L 269.354018 123.673449 
L 268.796575 122.728925 
L 267.433938 122.551127 
L 267.433938 120.801628 
L 266.628743 119.818346 
L 266.071301 118.813228 
L 266.071301 116.992 
L 264.956415 114.886735 
L 263.684504 114.634402 
L 262.879309 113.551638 
L 260.802203 114.123967 
L 255.714559 113.035756 
L 255.157116 111.875262 
L 254.351921 110.702059 
L 252.832258 110.400224 
L 250.755152 110.985133 
L 249.326215 108.537789 
L 247.249109 109.121735 
L 246.53464 107.858349 
L 245.262729 107.504798 
L 244.54826 106.202476 
L 243.028597 105.835472 
L 242.314128 104.492308 
L 241.042217 104.092427 
L 240.327748 102.706019 
L 238.250642 103.278556 
L 234.187157 101.990649 
L 233.472688 100.511576 
L 231.395582 101.091031 
L 230.123671 100.621579 
L 225.969459 101.819959 
L 220.881814 99.847191 
L 219.452877 96.501442 
L 216.661302 95.357155 
L 214.584196 95.957647 
L 210.768463 94.114255 
L 210.053994 92.224444 
L 208.782083 91.547089 
L 207.262419 90.868627 
L 203.198933 88.691368 
L 201.67927 87.938595 
L 200.407359 87.146923 
L 198.330253 87.733151 
L 194.514519 85.210435 
L 192.437413 85.802148 
L 188.62168 83.033287 
L 186.544574 83.627308 
L 184.000751 81.620645 
L 183.286283 78.941851 
L 177.054965 80.694705 
L 176.340496 77.81314 
L 175.068585 76.597895 
L 170.914373 77.764848 
L 169.642462 76.478994 
L 167.565356 77.0818 
L 166.293445 75.731403 
L 164.773781 74.366118 
L 162.696675 74.962286 
L 159.657348 72.029362 
L 156.618021 68.841739 
L 155.098358 67.141818 
L 150.944146 68.193488 
L 149.672235 66.298537 
L 147.595129 66.828293 
L 146.075465 64.864615 
L 143.998359 65.384939 
L 140.959033 61.061622 
L 139.439369 58.72 
L 138.167458 56.16 
L 136.647794 53.534118 
L 128.33937 54.72 
L 126.819707 51.591724 
L 120.588389 52.393846 
L 114.357071 53.405217 
L 110.202859 54.24 
L 108.125753 54.72 
L 106.60609 49.945263 
L 100.374772 50.94 
L 96.22056 51.84 
L 92.066348 53.04 
L 89.989242 53.803636 
L 87.912136 54.72 
L 85.277587 57.24 
L 83.200481 59.04 
L 81.123375 61.44 
L 79.046269 64.8 
L 76.969163 69.84 
L 74.892057 78.24 
L 72.814951 95.04 
L 71.295288 44.64 
L 69.218182 44.64 
L 69.218182 44.64 
" clip-path="url(#p10994770ae)" style="fill: none; stroke: #ff7f0e; stroke-width: 1.5; stroke-linecap: square"/>
   </g>
   <g id="line2d_17">
    <path d="M 373.581818 246.24 
L 373.581818 241.305734 
L 372.86735 241.294206 
L 372.86735 240.797746 
L 372.152881 240.784941 
L 372.152881 227.573333 
L 371.438412 227.52382 
L 371.438412 225.262703 
L 370.723944 225.205854 
L 370.723944 213.24 
L 370.009475 213.141493 
L 370.009475 210.699574 
L 368.399085 210.482202 
L 368.399085 208.791084 
L 367.593891 208.674783 
L 367.593891 206.047595 
L 366.321979 205.791592 
L 366.321979 204.886154 
L 365.516785 204.753183 
L 365.516785 204.294194 
L 363.439679 203.8843 
L 363.439679 202.471579 
L 362.634484 202.327129 
L 362.634484 201.365581 
L 361.11482 201.552 
L 361.11482 199.086102 
L 359.595157 198.764232 
L 359.595157 198.256438 
L 358.880688 198.091546 
L 358.880688 196.01561 
L 358.075494 195.84 
L 358.075494 195.309474 
L 356.55583 194.949541 
L 356.55583 192.769032 
L 355.998388 192.576691 
L 355.998388 191.457391 
L 354.63575 191.057518 
L 353.273113 191.224615 
L 352.467918 191.022353 
L 352.467918 190.446642 
L 351.105281 190.031822 
L 349.742643 189.610787 
L 348.380006 189.776842 
L 347.822563 189.563774 
L 347.822563 188.967273 
L 347.017369 188.749506 
L 347.017369 188.145344 
L 345.345041 187.472432 
L 345.345041 186.853953 
L 344.787598 186.622879 
L 344.787598 185.99625 
L 343.424961 186.155294 
L 342.867518 185.91874 
L 341.504881 186.078735 
L 341.504881 185.44 
L 340.389996 184.9536 
L 337.755447 185.272258 
L 336.640562 184.776585 
L 336.640562 184.114286 
L 335.277925 184.272787 
L 333.200819 183.501411 
L 332.643376 183.24 
L 332.643376 182.554644 
L 330.413606 181.470638 
L 329.050969 181.624615 
L 328.493526 181.347296 
L 328.493526 180.633103 
L 326.821199 179.773624 
L 326.821199 177.553274 
L 324.095924 177.84 
L 322.485534 177.223784 
L 321.122897 177.367602 
L 321.122897 176.596364 
L 319.760259 176.73863 
L 319.760259 174.373333 
L 318.087932 173.361127 
L 318.087932 172.541887 
L 317.530489 172.192607 
L 315.453383 172.8 
L 314.648188 172.448612 
L 314.648188 171.609231 
L 313.285551 170.88466 
L 312.728109 170.517073 
L 312.728109 168.777931 
L 311.365471 168.893465 
L 310.808029 168.508657 
L 310.808029 167.616 
L 310.09356 167.220905 
L 308.730923 167.330909 
L 307.459011 166.525714 
L 307.459011 165.6 
L 305.786684 164.34 
L 303.061409 164.538947 
L 301.946524 163.669787 
L 301.141329 163.228235 
L 300.583887 162.781935 
L 300.583887 161.785946 
L 300.026444 161.326957 
L 298.663807 161.41377 
L 298.106364 160.947692 
L 296.029258 161.590276 
L 295.471816 161.12 
L 295.471816 160.081341 
L 294.914373 159.597303 
L 294.109178 159.107797 
L 293.551736 158.612727 
L 293.551736 155.345202 
L 291.879408 153.741176 
L 291.879408 152.597396 
L 290.607497 152.64 
L 289.492612 151.512289 
L 289.492612 149.127805 
L 288.129974 149.150429 
L 287.572532 148.551111 
L 287.572532 146.07 
L 286.767337 145.44 
L 285.4047 145.44 
L 284.847257 144.797962 
L 284.132788 144.147692 
L 282.770151 144.139355 
L 282.770151 142.821818 
L 282.212708 142.145882 
L 280.940797 142.124211 
L 280.383355 141.434702 
L 279.57816 140.736 
L 279.020717 140.027919 
L 277.65808 139.991351 
L 277.100637 139.268571 
L 275.738 139.226301 
L 275.180557 138.488276 
L 273.81792 138.44 
L 273.260478 137.686154 
L 273.260478 136.211831 
L 271.58815 133.837122 
L 270.225513 133.753043 
L 269.66807 132.931971 
L 269.66807 129.76 
L 268.305433 129.642985 
L 267.74799 128.766316 
L 267.74799 127.112727 
L 266.633105 125.28 
L 264.555999 125.905116 
L 263.998556 124.965 
L 262.635919 124.80378 
L 261.92145 123.84 
L 261.92145 122.0544 
L 259.377628 121.674146 
L 258.820185 120.653115 
L 256.743079 121.281322 
L 251.316956 120.455385 
L 250.511761 119.371034 
L 248.992098 119.144348 
L 246.848692 115.74 
L 245.329029 115.472432 
L 244.771586 114.283636 
L 243.342649 111.84 
L 237.111331 113.76 
L 235.83942 113.455385 
L 233.762314 114.123495 
L 229.698828 113.184 
L 228.269891 110.468571 
L 225.478316 109.74 
L 224.763847 108.303158 
L 222.220025 107.504516 
L 220.142919 108.187826 
L 213.692637 106.046897 
L 212.978168 104.416744 
L 211.706257 103.934118 
L 209.629151 104.64 
L 208.35724 104.148434 
L 207.642771 102.41561 
L 205.098949 101.34 
L 204.38448 99.505823 
L 203.112569 98.916923 
L 201.035463 99.621818 
L 198.491641 98.4 
L 197.777172 96.402162 
L 196.505261 95.730411 
L 195.790792 93.64 
L 190.455395 90.592941 
L 189.740927 88.269851 
L 185.925193 85.59 
L 183.848087 86.24 
L 182.328424 85.285161 
L 180.899486 79.92 
L 179.379823 78.809492 
L 178.107912 77.66069 
L 176.588248 76.471579 
L 174.511142 77.04 
L 173.796674 73.963636 
L 172.27701 72.64 
L 169.733188 69.84 
L 163.50187 71.382857 
L 161.424764 71.94 
L 160.710295 68.231489 
L 158.633189 68.744348 
L 157.113526 67.04 
L 154.321951 67.549091 
L 152.802288 65.737674 
L 146.57097 67.32 
L 142.416758 68.513684 
L 139.377431 64.24 
L 137.300325 64.8 
L 135.780662 62.428235 
L 129.549344 64.149677 
L 128.02968 61.44 
L 125.952574 62.01931 
L 124.432911 59.04 
L 120.278699 60.147692 
L 116.124487 61.44 
L 114.604823 57.787826 
L 112.527717 58.385455 
L 111.008054 54.24 
L 106.853842 55.250526 
L 102.69963 56.498824 
L 98.545418 58.08 
L 96.468312 59.04 
L 94.391206 60.147692 
L 92.3141 61.44 
L 90.236994 62.967273 
L 88.717331 54.72 
L 86.640225 55.84 
L 84.563119 57.24 
L 82.486013 59.04 
L 80.408907 61.44 
L 78.889243 44.64 
L 70.580819 44.64 
L 70.580819 44.64 
" clip-path="url(#p10994770ae)" style="fill: none; stroke: #2ca02c; stroke-width: 1.5; stroke-linecap: square"/>
   </g>
   <g id="line2d_18">
    <path d="M 373.581818 246.24 
L 373.581818 235.863529 
L 372.86735 235.838034 
L 372.86735 227.622586 
L 372.062155 227.573333 
L 372.062155 225.646452 
L 371.347686 225.590943 
L 371.347686 224.932683 
L 370.633217 224.874783 
L 370.633217 218.592 
L 369.828023 218.512779 
L 369.828023 213.141493 
L 369.022828 213.042395 
L 369.022828 211.418182 
L 367.503164 211.618723 
L 366.69797 211.513171 
L 365.178306 211.715229 
L 365.178306 208.755 
L 364.373111 208.637492 
L 364.373111 207.323544 
L 363.010474 207.075669 
L 363.010474 206.628498 
L 362.205279 206.501538 
L 362.205279 200.391171 
L 360.933368 200.57557 
L 360.933368 199.086102 
L 359.661457 198.764232 
L 358.141793 198.946849 
L 358.141793 198.437938 
L 356.531404 198.107128 
L 356.531404 197.59 
L 355.816935 197.420488 
L 355.816935 196.897343 
L 354.454298 197.077895 
L 354.454298 196.549859 
L 353.649103 196.374276 
L 353.649103 194.214194 
L 352.934634 194.02705 
L 352.934634 192.918261 
L 350.20936 193.264818 
L 350.20936 192.134118 
L 349.651917 191.934465 
L 348.28928 192.106667 
L 347.484085 191.905428 
L 347.484085 191.326567 
L 346.926642 191.120899 
L 346.926642 190.534737 
L 346.3692 190.324528 
L 346.3692 189.132776 
L 345.254315 188.695172 
L 345.254315 188.086154 
L 344.539846 187.861622 
L 344.539846 186.622879 
L 342.867518 185.91874 
L 341.504881 186.078735 
L 341.504881 184.796175 
L 340.947438 184.5504 
L 340.947438 183.897831 
L 339.832553 183.393036 
L 339.832553 182.727805 
L 339.275111 182.468571 
L 337.755447 182.620328 
L 336.08312 181.828382 
L 336.08312 181.14 
L 334.410792 180.315949 
L 334.410792 179.609492 
L 332.891129 179.754894 
L 331.528491 179.184206 
L 331.528491 178.46069 
L 330.971049 178.167273 
L 329.608411 178.309565 
L 329.608411 177.572751 
L 328.245774 176.967753 
L 328.245774 176.215221 
L 327.130889 175.59 
L 325.520499 174.953514 
L 325.520499 174.174842 
L 324.157862 174.305455 
L 324.157862 173.516712 
L 323.042977 172.846452 
L 321.771066 172.973333 
L 321.771066 172.163721 
L 320.408428 172.288598 
L 319.850986 171.941408 
L 319.850986 171.115472 
L 316.906747 169.30087 
L 315.544109 169.416699 
L 313.871782 168.281379 
L 313.871782 166.502687 
L 313.314339 166.104 
L 311.951702 166.207839 
L 311.951702 165.294545 
L 310.836817 164.468571 
L 308.111542 164.664742 
L 307.554099 164.242073 
L 304.828825 164.438953 
L 304.828825 163.477895 
L 303.466187 163.573333 
L 302.908745 163.133617 
L 302.908745 162.15016 
L 302.351302 161.698065 
L 300.988665 161.785946 
L 300.18347 161.326957 
L 300.18347 160.312131 
L 298.820833 160.393846 
L 298.820833 159.362652 
L 298.015638 158.88 
L 298.015638 156.765843 
L 296.743727 155.749091 
L 295.628842 154.708966 
L 294.266204 154.762543 
L 294.266204 153.644651 
L 293.151319 152.555294 
L 293.151319 151.404497 
L 292.593877 150.84 
L 292.593877 149.66515 
L 292.036434 149.083373 
L 289.401885 149.127805 
L 285.900204 145.44 
L 285.900204 144.155924 
L 285.342761 143.501538 
L 283.980124 143.489032 
L 283.422682 142.821818 
L 282.617487 142.145882 
L 281.254849 142.124211 
L 279.025079 139.31027 
L 276.299804 139.226301 
L 276.299804 137.793103 
L 274.937167 137.74 
L 274.937167 134.792113 
L 274.131972 134.001702 
L 274.131972 132.48 
L 273.326777 131.661583 
L 272.211892 129.988905 
L 271.406698 129.134118 
L 271.406698 122.530909 
L 270.291812 120.627692 
L 269.577344 119.653953 
L 268.305433 119.4525 
L 266.228327 120.041575 
L 264.956415 119.84 
L 263.84153 117.80129 
L 261.764424 118.396098 
L 259.129876 117.949091 
L 258.415407 116.88 
L 255.871585 116.395932 
L 255.871585 114.424615 
L 251.808099 113.608421 
L 249.264277 113.04 
L 247.187171 113.656216 
L 245.915259 113.367273 
L 245.200791 112.148257 
L 237.230845 110.208932 
L 233.076633 111.507327 
L 230.285059 110.821818 
L 229.57059 109.44 
L 227.493484 110.108041 
L 226.064547 107.242105 
L 223.987441 107.908085 
L 223.987441 105.336774 
L 222.71553 104.90087 
L 221.286592 101.76 
L 220.014681 101.269213 
L 219.300212 99.621818 
L 215.146 100.900465 
L 210.058356 98.727805 
L 207.514533 97.56 
L 205.437427 98.229873 
L 202.893605 97.003636 
L 200.816499 97.692632 
L 199.544588 97.056 
L 197.467482 97.764324 
L 196.753013 95.730411 
L 194.675907 96.44 
L 193.403996 95.749859 
L 191.32689 96.48 
L 188.783068 95.04 
L 182.55175 97.366154 
L 181.279838 96.615 
L 179.850901 91.788387 
L 177.773795 92.561311 
L 177.059327 90 
L 172.905115 91.564138 
L 171.633203 90.618947 
L 170.918735 87.84 
L 169.646824 86.792727 
L 167.569718 87.573333 
L 166.297806 86.481509 
L 165.583338 83.409231 
L 164.063674 82.192941 
L 162.791763 80.928 
L 156.560445 83.244255 
L 154.483339 84.083478 
L 151.444012 81.294545 
L 150.729544 77.458605 
L 147.690217 74.142439 
L 145.613111 74.88 
L 142.573784 71.166316 
L 140.496678 71.883243 
L 138.977015 69.84 
L 134.822803 71.322353 
L 133.303139 69.076364 
L 129.148927 70.652903 
L 124.994715 72.446897 
L 120.840503 74.506667 
L 116.686291 76.896 
L 115.166628 74.04 
L 113.646964 70.935652 
L 112.127301 67.549091 
L 107.973089 69.84 
L 105.895983 71.166316 
L 104.376319 67.04 
L 102.299213 68.357647 
L 100.222107 69.84 
L 98.145001 71.52 
L 96.625338 66.24 
L 94.548232 67.901538 
L 92.471126 69.84 
L 90.39402 72.130909 
L 88.316914 74.88 
L 86.797251 67.04 
L 84.720145 69.84 
L 83.200481 59.04 
L 81.123375 61.44 
L 79.046269 64.8 
L 76.969163 69.84 
L 74.892057 78.24 
L 72.814951 95.04 
L 71.295288 44.64 
L 71.295288 44.64 
" clip-path="url(#p10994770ae)" style="fill: none; stroke: #d62728; stroke-width: 1.5; stroke-linecap: square"/>
   </g>
   <g id="line2d_19">
    <path d="M 373.581818 246.24 
L 373.581818 230.132784 
L 372.86735 230.091163 
L 372.86735 224.053043 
L 372.152881 223.992589 
L 372.152881 220.190562 
L 371.438412 220.117183 
L 371.438412 212.539701 
L 370.723944 212.438802 
L 370.723944 203.865478 
L 370.009475 203.730096 
L 370.009475 203.270769 
L 369.295006 203.132605 
L 369.295006 199.818947 
L 368.023095 199.511523 
L 368.023095 194.459178 
L 366.660458 194.102069 
L 366.660458 192.503415 
L 365.855263 192.315524 
L 365.855263 190.120851 
L 364.492626 190.279858 
L 364.492626 189.72 
L 362.882236 189.313381 
L 362.882236 188.743971 
L 361.271846 188.325818 
L 361.271846 186.575294 
L 358.389546 185.684776 
L 356.31244 186.213034 
L 355.197555 185.76 
L 353.834917 185.912727 
L 353.277475 185.683346 
L 353.277475 185.067481 
L 352.16259 184.596923 
L 352.16259 183.96973 
L 351.605147 183.728372 
L 351.605147 183.092918 
L 351.047704 182.84625 
L 351.047704 181.553386 
L 349.775793 181.04 
L 348.503882 181.181833 
L 347.388997 180.659277 
L 346.02636 180.80129 
L 343.949254 181.352551 
L 342.834368 180.822857 
L 341.562457 180.967869 
L 340.757262 180.699259 
L 339.394625 180.844959 
L 338.837183 180.57361 
L 337.474545 180.72 
L 337.474545 180.0241 
L 336.917103 179.745882 
L 335.554465 179.890633 
L 334.191828 179.325957 
L 332.829191 179.470769 
L 332.271748 179.184206 
L 332.271748 178.46069 
L 331.714305 178.167273 
L 331.714305 177.433043 
L 328.989031 177.713684 
L 328.989031 176.215221 
L 328.431588 175.904 
L 328.431588 175.14 
L 327.068951 175.273184 
L 325.79704 174.63095 
L 324.991845 174.305455 
L 323.629207 174.43726 
L 322.26657 173.775484 
L 322.26657 172.973333 
L 318.021632 173.361127 
L 315.791862 171.966316 
L 314.429224 172.093846 
L 313.871782 171.735652 
L 312.599871 171.863301 
L 312.599871 171.00878 
L 311.237233 171.134118 
L 311.237233 167.616 
L 310.432038 167.220905 
L 310.432038 166.312727 
L 309.874596 165.907005 
L 309.069401 165.497143 
L 309.069401 163.625567 
L 307.954516 162.765 
L 307.954516 161.800209 
L 307.397073 161.355789 
L 306.125162 161.44 
L 305.56772 160.988936 
L 304.205082 161.072086 
L 304.205082 160.072258 
L 302.532755 158.659672 
L 301.72756 158.178462 
L 301.72756 157.135028 
L 298.845259 157.265698 
L 298.845259 156.199551 
L 298.040064 155.690847 
L 298.040064 154.603636 
L 297.482622 154.08 
L 297.482622 151.849249 
L 296.677427 151.300465 
L 292.775329 147.272727 
L 292.217886 146.669268 
L 290.855249 146.67681 
L 290.297806 146.062222 
L 288.935169 146.066087 
L 288.377726 145.44 
L 288.377726 138.936774 
L 287.015089 138.894545 
L 284.785319 136.032 
L 284.785319 134.615839 
L 284.227876 133.861622 
L 282.865239 133.782857 
L 282.865239 132.322192 
L 278.777327 132.046993 
L 278.219884 131.242817 
L 278.219884 129.71234 
L 277.662442 128.88 
L 276.299804 128.760863 
L 275.49461 127.909565 
L 274.131972 127.781606 
L 273.57453 126.910588 
L 272.211892 126.773333 
L 271.497424 125.881791 
L 271.497424 120.817099 
L 270.225513 120.627692 
L 268.148407 121.216744 
L 267.590964 120.24 
L 265.513858 120.835276 
L 264.151221 120.64 
L 264.151221 118.8288 
L 261.516672 118.396098 
L 260.95923 117.348197 
L 258.324681 116.88 
L 256.247575 117.487059 
L 253.456 117.009231 
L 251.378894 117.633103 
L 251.378894 115.638261 
L 247.472435 114.84 
L 246.757966 113.656216 
L 244.68086 114.283636 
L 240.617374 113.410093 
L 239.902906 112.156981 
L 238.630994 111.84 
L 237.916526 110.547692 
L 235.124951 109.863529 
L 234.410482 108.513267 
L 229.075085 106.990515 
L 228.360617 105.54 
L 227.088706 105.12 
L 226.374237 103.618723 
L 223.582662 102.709565 
L 221.505556 103.347692 
L 218.647682 96.777931 
L 217.933213 95.04 
L 216.661302 94.447059 
L 215.946833 92.64 
L 214.674922 92.003855 
L 213.960454 90.122927 
L 209.806242 91.26 
L 208.53433 90.574177 
L 207.819862 88.578462 
L 206.300198 87.84 
L 205.58573 85.755789 
L 203.508624 86.304 
L 200.964801 84.683836 
L 199.535864 80.132958 
L 196.992042 78.24 
L 192.83783 79.242985 
L 189.022096 76.14 
L 186.94499 76.64 
L 185.673079 75.530323 
L 184.95861 72.731803 
L 183.686699 71.52 
L 181.609593 71.975593 
L 179.065771 69.397895 
L 178.351302 66.24 
L 176.274196 66.632727 
L 175.559728 63.306667 
L 173.482622 63.658868 
L 172.21071 62.086154 
L 168.056498 62.784 
L 166.536835 61.097143 
L 162.382623 61.797447 
L 159.343296 58.08 
L 157.26619 58.385455 
L 154.226863 54.24 
L 152.149757 54.474146 
L 149.11043 49.809231 
L 140.802006 50.4 
L 139.282343 47.604706 
L 130.973919 48 
L 129.454256 44.64 
L 71.295288 44.64 
L 71.295288 44.64 
" clip-path="url(#p10994770ae)" style="fill: none; stroke: #9467bd; stroke-width: 1.5; stroke-linecap: square"/>
   </g>
   <g id="patch_3">
    <path d="M 54 256.32 
L 54 34.56 
" style="fill: none; stroke: #000000; stroke-width: 0.8; stroke-linejoin: miter; stroke-linecap: square"/>
   </g>
   <g id="patch_4">
    <path d="M 388.8 256.32 
L 388.8 34.56 
" style="fill: none; stroke: #000000; stroke-width: 0.8; stroke-linejoin: miter; stroke-linecap: square"/>
   </g>
   <g id="patch_5">
    <path d="M 54 256.32 
L 388.8 256.32 
" style="fill: none; stroke: #000000; stroke-width: 0.8; stroke-linejoin: miter; stroke-linecap: square"/>
   </g>
   <g id="patch_6">
    <path d="M 54 34.56 
L 388.8 34.56 
" style="fill: none; stroke: #000000; stroke-width: 0.8; stroke-linejoin: miter; stroke-linecap: square"/>
   </g>
   <g id="text_17">
    <!-- Precision-Recall Curve -->
    <g transform="translate(154.9575 28.56) scale(0.12 -0.12)">
     <defs>
      <path id="DejaVuSans-50" d="M 1259 4147 
L 1259 2394 
L 2053 2394 
Q 2494 2394 2734 2622 
Q 2975 2850 2975 3272 
Q 2975 3691 2734 3919 
Q 2494 4147 2053 4147 
L 1259 4147 
z
M 628 4666 
L 2053 4666 
Q 2838 4666 3239 4311 
Q 3641 3956 3641 3272 
Q 3641 2581 3239 2228 
Q 2838 1875 2053 1875 
L 1259 1875 
L 1259 0 
L 628 0 
L 628 4666 
z
" transform="scale(0.015625)"/>
      <path id="DejaVuSans-2d" d="M 313 2009 
L 1997 2009 
L 1997 1497 
L 313 1497 
L 313 2009 
z
" transform="scale(0.015625)"/>
      <path id="DejaVuSans-52" d="M 2841 2188 
Q 3044 2119 3236 1894 
Q 3428 1669 3622 1275 
L 4263 0 
L 3584 0 
L 2988 1197 
Q 2756 1666 2539 1819 
Q 2322 1972 1947 1972 
L 1259 1972 
L 1259 0 
L 628 0 
L 628 4666 
L 2053 4666 
Q 2853 4666 3247 4331 
Q 3641 3997 3641 3322 
Q 3641 2881 3436 2590 
Q 3231 2300 2841 2188 
z
M 1259 4147 
L 1259 2491 
L 2053 2491 
Q 2509 2491 2742 2702 
Q 2975 2913 2975 3322 
Q 2975 3731 2742 3939 
Q 2509 4147 2053 4147 
L 1259 4147 
z
" transform="scale(0.015625)"/>
      <path id="DejaVuSans-20" transform="scale(0.015625)"/>
      <path id="DejaVuSans-43" d="M 4122 4306 
L 4122 3641 
Q 3803 3938 3442 4084 
Q 3081 4231 2675 4231 
Q 1875 4231 1450 3742 
Q 1025 3253 1025 2328 
Q 1025 1406 1450 917 
Q 1875 428 2675 428 
Q 3081 428 3442 575 
Q 3803 722 4122 1019 
L 4122 359 
Q 3791 134 3420 21 
Q 3050 -91 2638 -91 
Q 1578 -91 968 557 
Q 359 1206 359 2328 
Q 359 3453 968 4101 
Q 1578 4750 2638 4750 
Q 3056 4750 3426 4639 
Q 3797 4528 4122 4306 
z
" transform="scale(0.015625)"/>
      <path id="DejaVuSans-75" d="M 544 1381 
L 544 3500 
L 1119 3500 
L 1119 1403 
Q 1119 906 1312 657 
Q 1506 409 1894 409 
Q 2359 409 2629 706 
Q 2900 1003 2900 1516 
L 2900 3500 
L 3475 3500 
L 3475 0 
L 2900 0 
L 2900 538 
Q 2691 219 2414 64 
Q 2138 -91 1772 -91 
Q 1169 -91 856 284 
Q 544 659 544 1381 
z
M 1991 3584 
L 1991 3584 
z
" transform="scale(0.015625)"/>
      <path id="DejaVuSans-76" d="M 191 3500 
L 800 3500 
L 1894 563 
L 2988 3500 
L 3597 3500 
L 2284 0 
L 1503 0 
L 191 3500 
z
" transform="scale(0.015625)"/>
     </defs>
     <use xlink:href="#DejaVuSans-50"/>
     <use xlink:href="#DejaVuSans-72" x="58.552734"/>
     <use xlink:href="#DejaVuSans-65" x="97.416016"/>
     <use xlink:href="#DejaVuSans-63" x="158.939453"/>
     <use xlink:href="#DejaVuSans-69" x="213.919922"/>
     <use xlink:href="#DejaVuSans-73" x="241.703125"/>
     <use xlink:href="#DejaVuSans-69" x="293.802734"/>
     <use xlink:href="#DejaVuSans-6f" x="321.585938"/>
     <use xlink:href="#DejaVuSans-6e" x="382.767578"/>
     <use xlink:href="#DejaVuSans-2d" x="446.146484"/>
     <use xlink:href="#DejaVuSans-52" x="482.230469"/>
     <use xlink:href="#DejaVuSans-65" x="547.212891"/>
     <use xlink:href="#DejaVuSans-63" x="608.736328"/>
     <use xlink:href="#DejaVuSans-61" x="663.716797"/>
     <use xlink:href="#DejaVuSans-6c" x="724.996094"/>
     <use xlink:href="#DejaVuSans-6c" x="752.779297"/>
     <use xlink:href="#DejaVuSans-20" x="780.5625"/>
     <use xlink:href="#DejaVuSans-43" x="812.349609"/>
     <use xlink:href="#DejaVuSans-75" x="882.173828"/>
     <use xlink:href="#DejaVuSans-72" x="945.552734"/>
     <use xlink:href="#DejaVuSans-76" x="986.666016"/>
     <use xlink:href="#DejaVuSans-65" x="1045.845703"/>
    </g>
   </g>
   <g id="legend_1">
    <g id="patch_7">
     <path d="M 282.620313 115.950625 
L 381.8 115.950625 
Q 383.8 115.950625 383.8 113.950625 
L 383.8 41.56 
Q 383.8 39.56 381.8 39.56 
L 282.620313 39.56 
Q 280.620313 39.56 280.620313 41.56 
L 280.620313 113.950625 
Q 280.620313 115.950625 282.620313 115.950625 
z
" style="fill: #ffffff; opacity: 0.8; stroke: #cccccc; stroke-linejoin: miter"/>
    </g>
    <g id="line2d_20">
     <path d="M 284.620313 47.658437 
L 294.620313 47.658437 
L 304.620313 47.658437 
" style="fill: none; stroke: #1f77b4; stroke-width: 1.5; stroke-linecap: square"/>
    </g>
    <g id="text_18">
     <!-- RFC -  0.803 -->
     <g transform="translate(312.620313 51.158437) scale(0.1 -0.1)">
      <defs>
       <path id="DejaVuSans-46" d="M 628 4666 
L 3309 4666 
L 3309 4134 
L 1259 4134 
L 1259 2759 
L 3109 2759 
L 3109 2228 
L 1259 2228 
L 1259 0 
L 628 0 
L 628 4666 
z
" transform="scale(0.015625)"/>
      </defs>
      <use xlink:href="#DejaVuSans-52"/>
      <use xlink:href="#DejaVuSans-46" x="69.482422"/>
      <use xlink:href="#DejaVuSans-43" x="127.001953"/>
      <use xlink:href="#DejaVuSans-20" x="196.826172"/>
      <use xlink:href="#DejaVuSans-2d" x="228.613281"/>
      <use xlink:href="#DejaVuSans-20" x="264.697266"/>
      <use xlink:href="#DejaVuSans-20" x="296.484375"/>
      <use xlink:href="#DejaVuSans-30" x="328.271484"/>
      <use xlink:href="#DejaVuSans-2e" x="391.894531"/>
      <use xlink:href="#DejaVuSans-38" x="423.681641"/>
      <use xlink:href="#DejaVuSans-30" x="487.304688"/>
      <use xlink:href="#DejaVuSans-33" x="550.927734"/>
     </g>
    </g>
    <g id="line2d_21">
     <path d="M 284.620313 62.336562 
L 294.620313 62.336562 
L 304.620313 62.336562 
" style="fill: none; stroke: #ff7f0e; stroke-width: 1.5; stroke-linecap: square"/>
    </g>
    <g id="text_19">
     <!-- GB -  0.805 -->
     <g transform="translate(312.620313 65.836562) scale(0.1 -0.1)">
      <defs>
       <path id="DejaVuSans-47" d="M 3809 666 
L 3809 1919 
L 2778 1919 
L 2778 2438 
L 4434 2438 
L 4434 434 
Q 4069 175 3628 42 
Q 3188 -91 2688 -91 
Q 1594 -91 976 548 
Q 359 1188 359 2328 
Q 359 3472 976 4111 
Q 1594 4750 2688 4750 
Q 3144 4750 3555 4637 
Q 3966 4525 4313 4306 
L 4313 3634 
Q 3963 3931 3569 4081 
Q 3175 4231 2741 4231 
Q 1884 4231 1454 3753 
Q 1025 3275 1025 2328 
Q 1025 1384 1454 906 
Q 1884 428 2741 428 
Q 3075 428 3337 486 
Q 3600 544 3809 666 
z
" transform="scale(0.015625)"/>
       <path id="DejaVuSans-42" d="M 1259 2228 
L 1259 519 
L 2272 519 
Q 2781 519 3026 730 
Q 3272 941 3272 1375 
Q 3272 1813 3026 2020 
Q 2781 2228 2272 2228 
L 1259 2228 
z
M 1259 4147 
L 1259 2741 
L 2194 2741 
Q 2656 2741 2882 2914 
Q 3109 3088 3109 3444 
Q 3109 3797 2882 3972 
Q 2656 4147 2194 4147 
L 1259 4147 
z
M 628 4666 
L 2241 4666 
Q 2963 4666 3353 4366 
Q 3744 4066 3744 3513 
Q 3744 3084 3544 2831 
Q 3344 2578 2956 2516 
Q 3422 2416 3680 2098 
Q 3938 1781 3938 1306 
Q 3938 681 3513 340 
Q 3088 0 2303 0 
L 628 0 
L 628 4666 
z
" transform="scale(0.015625)"/>
      </defs>
      <use xlink:href="#DejaVuSans-47"/>
      <use xlink:href="#DejaVuSans-42" x="77.490234"/>
      <use xlink:href="#DejaVuSans-20" x="146.09375"/>
      <use xlink:href="#DejaVuSans-2d" x="177.880859"/>
      <use xlink:href="#DejaVuSans-20" x="213.964844"/>
      <use xlink:href="#DejaVuSans-20" x="245.751953"/>
      <use xlink:href="#DejaVuSans-30" x="277.539062"/>
      <use xlink:href="#DejaVuSans-2e" x="341.162109"/>
      <use xlink:href="#DejaVuSans-38" x="372.949219"/>
      <use xlink:href="#DejaVuSans-30" x="436.572266"/>
      <use xlink:href="#DejaVuSans-35" x="500.195312"/>
     </g>
    </g>
    <g id="line2d_22">
     <path d="M 284.620313 77.014687 
L 294.620313 77.014687 
L 304.620313 77.014687 
" style="fill: none; stroke: #2ca02c; stroke-width: 1.5; stroke-linecap: square"/>
    </g>
    <g id="text_20">
     <!-- XGB -  0.791 -->
     <g transform="translate(312.620313 80.514687) scale(0.1 -0.1)">
      <defs>
       <path id="DejaVuSans-58" d="M 403 4666 
L 1081 4666 
L 2241 2931 
L 3406 4666 
L 4084 4666 
L 2584 2425 
L 4184 0 
L 3506 0 
L 2194 1984 
L 872 0 
L 191 0 
L 1856 2491 
L 403 4666 
z
" transform="scale(0.015625)"/>
      </defs>
      <use xlink:href="#DejaVuSans-58"/>
      <use xlink:href="#DejaVuSans-47" x="68.505859"/>
      <use xlink:href="#DejaVuSans-42" x="145.996094"/>
      <use xlink:href="#DejaVuSans-20" x="214.599609"/>
      <use xlink:href="#DejaVuSans-2d" x="246.386719"/>
      <use xlink:href="#DejaVuSans-20" x="282.470703"/>
      <use xlink:href="#DejaVuSans-20" x="314.257812"/>
      <use xlink:href="#DejaVuSans-30" x="346.044922"/>
      <use xlink:href="#DejaVuSans-2e" x="409.667969"/>
      <use xlink:href="#DejaVuSans-37" x="441.455078"/>
      <use xlink:href="#DejaVuSans-39" x="505.078125"/>
      <use xlink:href="#DejaVuSans-31" x="568.701172"/>
     </g>
    </g>
    <g id="line2d_23">
     <path d="M 284.620313 91.692813 
L 294.620313 91.692813 
L 304.620313 91.692813 
" style="fill: none; stroke: #d62728; stroke-width: 1.5; stroke-linecap: square"/>
    </g>
    <g id="text_21">
     <!-- LGB -  0.784 -->
     <g transform="translate(312.620313 95.192813) scale(0.1 -0.1)">
      <defs>
       <path id="DejaVuSans-4c" d="M 628 4666 
L 1259 4666 
L 1259 531 
L 3531 531 
L 3531 0 
L 628 0 
L 628 4666 
z
" transform="scale(0.015625)"/>
      </defs>
      <use xlink:href="#DejaVuSans-4c"/>
      <use xlink:href="#DejaVuSans-47" x="55.712891"/>
      <use xlink:href="#DejaVuSans-42" x="133.203125"/>
      <use xlink:href="#DejaVuSans-20" x="201.806641"/>
      <use xlink:href="#DejaVuSans-2d" x="233.59375"/>
      <use xlink:href="#DejaVuSans-20" x="269.677734"/>
      <use xlink:href="#DejaVuSans-20" x="301.464844"/>
      <use xlink:href="#DejaVuSans-30" x="333.251953"/>
      <use xlink:href="#DejaVuSans-2e" x="396.875"/>
      <use xlink:href="#DejaVuSans-37" x="428.662109"/>
      <use xlink:href="#DejaVuSans-38" x="492.285156"/>
      <use xlink:href="#DejaVuSans-34" x="555.908203"/>
     </g>
    </g>
    <g id="line2d_24">
     <path d="M 284.620313 106.370937 
L 294.620313 106.370937 
L 304.620313 106.370937 
" style="fill: none; stroke: #9467bd; stroke-width: 1.5; stroke-linecap: square"/>
    </g>
    <g id="text_22">
     <!-- STCK -  0.815 -->
     <g transform="translate(312.620313 109.870937) scale(0.1 -0.1)">
      <defs>
       <path id="DejaVuSans-53" d="M 3425 4513 
L 3425 3897 
Q 3066 4069 2747 4153 
Q 2428 4238 2131 4238 
Q 1616 4238 1336 4038 
Q 1056 3838 1056 3469 
Q 1056 3159 1242 3001 
Q 1428 2844 1947 2747 
L 2328 2669 
Q 3034 2534 3370 2195 
Q 3706 1856 3706 1288 
Q 3706 609 3251 259 
Q 2797 -91 1919 -91 
Q 1588 -91 1214 -16 
Q 841 59 441 206 
L 441 856 
Q 825 641 1194 531 
Q 1563 422 1919 422 
Q 2459 422 2753 634 
Q 3047 847 3047 1241 
Q 3047 1584 2836 1778 
Q 2625 1972 2144 2069 
L 1759 2144 
Q 1053 2284 737 2584 
Q 422 2884 422 3419 
Q 422 4038 858 4394 
Q 1294 4750 2059 4750 
Q 2388 4750 2728 4690 
Q 3069 4631 3425 4513 
z
" transform="scale(0.015625)"/>
       <path id="DejaVuSans-54" d="M -19 4666 
L 3928 4666 
L 3928 4134 
L 2272 4134 
L 2272 0 
L 1638 0 
L 1638 4134 
L -19 4134 
L -19 4666 
z
" transform="scale(0.015625)"/>
       <path id="DejaVuSans-4b" d="M 628 4666 
L 1259 4666 
L 1259 2694 
L 3353 4666 
L 4166 4666 
L 1850 2491 
L 4331 0 
L 3500 0 
L 1259 2247 
L 1259 0 
L 628 0 
L 628 4666 
z
" transform="scale(0.015625)"/>
      </defs>
      <use xlink:href="#DejaVuSans-53"/>
      <use xlink:href="#DejaVuSans-54" x="63.476562"/>
      <use xlink:href="#DejaVuSans-43" x="118.685547"/>
      <use xlink:href="#DejaVuSans-4b" x="188.509766"/>
      <use xlink:href="#DejaVuSans-20" x="254.085938"/>
      <use xlink:href="#DejaVuSans-2d" x="285.873047"/>
      <use xlink:href="#DejaVuSans-20" x="321.957031"/>
      <use xlink:href="#DejaVuSans-20" x="353.744141"/>
      <use xlink:href="#DejaVuSans-30" x="385.53125"/>
      <use xlink:href="#DejaVuSans-2e" x="449.154297"/>
      <use xlink:href="#DejaVuSans-38" x="480.941406"/>
      <use xlink:href="#DejaVuSans-31" x="544.564453"/>
      <use xlink:href="#DejaVuSans-35" x="608.1875"/>
     </g>
    </g>
   </g>
  </g>
 </g>
 <defs>
  <clipPath id="p10994770ae">
   <rect x="54" y="34.56" width="334.8" height="221.76"/>
  </clipPath>
 </defs>
</svg>
